<?xml version="1.0" encoding="utf-8"?>
<!-- Generator: Adobe Illustrator 24.3.0, SVG Export Plug-In . SVG Version: 6.00 Build 0)  -->
<svg version="1.1" id="Layer_1" xmlns="http://www.w3.org/2000/svg" xmlns:xlink="http://www.w3.org/1999/xlink" x="0px" y="0px"
	 viewBox="0 0 2000 2000" style="enable-background:new 0 0 2000 2000;" xml:space="preserve">
<style type="text/css">
	.st0{fill:none;stroke:#000000;stroke-width:2;stroke-miterlimit:10;}
	.st1{fill:none;stroke:#BE1E2D;stroke-miterlimit:10;}
	.st2{fill:#314155;stroke:#000000;stroke-miterlimit:10;}
	.st3{fill:#C9DAEA;}
	.st4{fill:#F5F0EB;}
	.st5{display:none;}
	.st6{display:inline;fill:none;stroke:#000000;stroke-width:2;stroke-miterlimit:10;}
	.st7{display:inline;fill:none;stroke:#BE1E2D;stroke-miterlimit:10;}
	.st8{display:none;fill:#304156;stroke:#000000;stroke-miterlimit:10;}
	.st9{display:none;fill:#314155;stroke:#000000;stroke-miterlimit:10;}
</style>
<g>
	<rect x="-2499.88" y="-5405" class="st0" width="5000" height="5000"/>
	<line class="st0" x1="-2499.88" y1="-643.1" x2="2500.12" y2="-643.1"/>
	<line class="st0" x1="-2499.88" y1="-881.19" x2="2500.12" y2="-881.19"/>
	<line class="st0" x1="-2499.88" y1="-1119.29" x2="2500.12" y2="-1119.29"/>
	<line class="st0" x1="-2499.88" y1="-1357.38" x2="2500.12" y2="-1357.38"/>
	<line class="st0" x1="-2499.88" y1="-1595.48" x2="2500.12" y2="-1595.48"/>
	<line class="st0" x1="-2499.88" y1="-1833.57" x2="2500.12" y2="-1833.57"/>
	<line class="st0" x1="-2499.88" y1="-2071.67" x2="2500.12" y2="-2071.67"/>
	<line class="st0" x1="-2499.88" y1="-2309.76" x2="2500.12" y2="-2309.76"/>
	<line class="st0" x1="-2499.88" y1="-2547.86" x2="2500.12" y2="-2547.86"/>
	<line class="st0" x1="-2499.88" y1="-2785.95" x2="2500.12" y2="-2785.95"/>
	<line class="st0" x1="-2499.88" y1="-3024.05" x2="2500.12" y2="-3024.05"/>
	<line class="st0" x1="-2499.88" y1="-3262.14" x2="2500.12" y2="-3262.14"/>
	<line class="st0" x1="-2499.88" y1="-3500.24" x2="2500.12" y2="-3500.24"/>
	<line class="st0" x1="-2499.88" y1="-3738.33" x2="2500.12" y2="-3738.33"/>
	<line class="st0" x1="-2499.88" y1="-3976.43" x2="2500.12" y2="-3976.43"/>
	<line class="st0" x1="-2499.88" y1="-4214.52" x2="2500.12" y2="-4214.52"/>
	<line class="st0" x1="-2499.88" y1="-4452.62" x2="2500.12" y2="-4452.62"/>
	<line class="st0" x1="-2499.88" y1="-4690.71" x2="2500.12" y2="-4690.71"/>
	<line class="st0" x1="-2499.88" y1="-4928.81" x2="2500.12" y2="-4928.81"/>
	<line class="st0" x1="-2499.88" y1="-5166.9" x2="2500.12" y2="-5166.9"/>
	<line class="st0" x1="2262.03" y1="-5405" x2="2262.03" y2="-405"/>
	<line class="st0" x1="2023.93" y1="-5405" x2="2023.93" y2="-405"/>
	<line class="st0" x1="1785.84" y1="-5405" x2="1785.84" y2="-405"/>
	<line class="st0" x1="1547.74" y1="-5405" x2="1547.74" y2="-405"/>
	<line class="st0" x1="1309.65" y1="-5405" x2="1309.65" y2="-405"/>
	<line class="st0" x1="1071.55" y1="-5405" x2="1071.55" y2="-405"/>
	<line class="st0" x1="833.46" y1="-5405" x2="833.46" y2="-405"/>
	<line class="st0" x1="595.36" y1="-5405" x2="595.36" y2="-405"/>
	<line class="st0" x1="357.27" y1="-5405" x2="357.27" y2="-405"/>
	<line class="st0" x1="119.17" y1="-5405" x2="119.17" y2="-405"/>
	<line class="st0" x1="-118.92" y1="-5405" x2="-118.92" y2="-405"/>
	<line class="st0" x1="-357.02" y1="-5405" x2="-357.02" y2="-405"/>
	<line class="st0" x1="-595.11" y1="-5405" x2="-595.11" y2="-405"/>
	<line class="st0" x1="-833.21" y1="-5405" x2="-833.21" y2="-405"/>
	<line class="st0" x1="-1071.3" y1="-5405" x2="-1071.3" y2="-405"/>
	<line class="st0" x1="-1309.4" y1="-5405" x2="-1309.4" y2="-405"/>
	<line class="st0" x1="-1547.49" y1="-5405" x2="-1547.49" y2="-405"/>
	<line class="st0" x1="-1785.59" y1="-5405" x2="-1785.59" y2="-405"/>
	<line class="st0" x1="-2023.68" y1="-5405" x2="-2023.68" y2="-405"/>
	<line class="st0" x1="-2261.78" y1="-5405" x2="-2261.78" y2="-405"/>
</g>
<g>
	<rect x="-2499.88" y="-5405" class="st1" width="5000" height="5000"/>
	<line class="st1" x1="-2499.88" y1="-524.05" x2="2500.12" y2="-524.05"/>
	<line class="st1" x1="-2499.88" y1="-643.1" x2="2500.12" y2="-643.1"/>
	<line class="st1" x1="-2499.88" y1="-762.14" x2="2500.12" y2="-762.14"/>
	<line class="st1" x1="-2499.88" y1="-881.19" x2="2500.12" y2="-881.19"/>
	<line class="st1" x1="-2499.88" y1="-1000.24" x2="2500.12" y2="-1000.24"/>
	<line class="st1" x1="-2499.88" y1="-1119.29" x2="2500.12" y2="-1119.29"/>
	<line class="st1" x1="-2499.88" y1="-1238.33" x2="2500.12" y2="-1238.33"/>
	<line class="st1" x1="-2499.88" y1="-1357.38" x2="2500.12" y2="-1357.38"/>
	<line class="st1" x1="-2499.88" y1="-1476.43" x2="2500.12" y2="-1476.43"/>
	<line class="st1" x1="-2499.88" y1="-1595.48" x2="2500.12" y2="-1595.48"/>
	<line class="st1" x1="-2499.88" y1="-1714.52" x2="2500.12" y2="-1714.52"/>
	<line class="st1" x1="-2499.88" y1="-1833.57" x2="2500.12" y2="-1833.57"/>
	<line class="st1" x1="-2499.88" y1="-1952.62" x2="2500.12" y2="-1952.62"/>
	<line class="st1" x1="-2499.88" y1="-2071.67" x2="2500.12" y2="-2071.67"/>
	<line class="st1" x1="-2499.88" y1="-2190.71" x2="2500.12" y2="-2190.71"/>
	<line class="st1" x1="-2499.88" y1="-2309.76" x2="2500.12" y2="-2309.76"/>
	<line class="st1" x1="-2499.88" y1="-2428.81" x2="2500.12" y2="-2428.81"/>
	<line class="st1" x1="-2499.88" y1="-2547.86" x2="2500.12" y2="-2547.86"/>
	<line class="st1" x1="-2499.88" y1="-2666.9" x2="2500.12" y2="-2666.9"/>
	<line class="st1" x1="-2499.88" y1="-2785.95" x2="2500.12" y2="-2785.95"/>
	<line class="st1" x1="-2499.88" y1="-2905" x2="2500.12" y2="-2905"/>
	<line class="st1" x1="-2499.88" y1="-3024.05" x2="2500.12" y2="-3024.05"/>
	<line class="st1" x1="-2499.88" y1="-3143.1" x2="2500.12" y2="-3143.1"/>
	<line class="st1" x1="-2499.88" y1="-3262.14" x2="2500.12" y2="-3262.14"/>
	<line class="st1" x1="-2499.88" y1="-3381.19" x2="2500.12" y2="-3381.19"/>
	<line class="st1" x1="-2499.88" y1="-3500.24" x2="2500.12" y2="-3500.24"/>
	<line class="st1" x1="-2499.88" y1="-3619.29" x2="2500.12" y2="-3619.29"/>
	<line class="st1" x1="-2499.88" y1="-3738.33" x2="2500.12" y2="-3738.33"/>
	<line class="st1" x1="-2499.88" y1="-3857.38" x2="2500.12" y2="-3857.38"/>
	<line class="st1" x1="-2499.88" y1="-3976.43" x2="2500.12" y2="-3976.43"/>
	<line class="st1" x1="-2499.88" y1="-4095.48" x2="2500.12" y2="-4095.48"/>
	<line class="st1" x1="-2499.88" y1="-4214.52" x2="2500.12" y2="-4214.52"/>
	<line class="st1" x1="-2499.88" y1="-4333.57" x2="2500.12" y2="-4333.57"/>
	<line class="st1" x1="-2499.88" y1="-4452.62" x2="2500.12" y2="-4452.62"/>
	<line class="st1" x1="-2499.88" y1="-4571.67" x2="2500.12" y2="-4571.67"/>
	<line class="st1" x1="-2499.88" y1="-4690.71" x2="2500.12" y2="-4690.71"/>
	<line class="st1" x1="-2499.88" y1="-4809.76" x2="2500.12" y2="-4809.76"/>
	<line class="st1" x1="-2499.88" y1="-4928.81" x2="2500.12" y2="-4928.81"/>
	<line class="st1" x1="-2499.88" y1="-5047.86" x2="2500.12" y2="-5047.86"/>
	<line class="st1" x1="-2499.88" y1="-5166.9" x2="2500.12" y2="-5166.9"/>
	<line class="st1" x1="-2499.88" y1="-5285.95" x2="2500.12" y2="-5285.95"/>
	<line class="st1" x1="2381.08" y1="-5405" x2="2381.08" y2="-405"/>
	<line class="st1" x1="2262.03" y1="-5405" x2="2262.03" y2="-405"/>
	<line class="st1" x1="2142.98" y1="-5405" x2="2142.98" y2="-405"/>
	<line class="st1" x1="2023.93" y1="-5405" x2="2023.93" y2="-405"/>
	<line class="st1" x1="1904.89" y1="-5405" x2="1904.89" y2="-405"/>
	<line class="st1" x1="1785.84" y1="-5405" x2="1785.84" y2="-405"/>
	<line class="st1" x1="1666.79" y1="-5405" x2="1666.79" y2="-405"/>
	<line class="st1" x1="1547.74" y1="-5405" x2="1547.74" y2="-405"/>
	<line class="st1" x1="1428.7" y1="-5405" x2="1428.7" y2="-405"/>
	<line class="st1" x1="1309.65" y1="-5405" x2="1309.65" y2="-405"/>
	<line class="st1" x1="1190.6" y1="-5405" x2="1190.6" y2="-405"/>
	<line class="st1" x1="1071.55" y1="-5405" x2="1071.55" y2="-405"/>
	<line class="st1" x1="952.51" y1="-5405" x2="952.51" y2="-405"/>
	<line class="st1" x1="833.46" y1="-5405" x2="833.46" y2="-405"/>
	<line class="st1" x1="714.41" y1="-5405" x2="714.41" y2="-405"/>
	<line class="st1" x1="595.36" y1="-5405" x2="595.36" y2="-405"/>
	<line class="st1" x1="476.32" y1="-5405" x2="476.32" y2="-405"/>
	<line class="st1" x1="357.27" y1="-5405" x2="357.27" y2="-405"/>
	<line class="st1" x1="238.22" y1="-5405" x2="238.22" y2="-405"/>
	<line class="st1" x1="119.17" y1="-5405" x2="119.17" y2="-405"/>
	<line class="st1" x1="0.12" y1="-5405" x2="0.12" y2="-405"/>
	<line class="st1" x1="-118.92" y1="-5405" x2="-118.92" y2="-405"/>
	<line class="st1" x1="-237.97" y1="-5405" x2="-237.97" y2="-405"/>
	<line class="st1" x1="-357.02" y1="-5405" x2="-357.02" y2="-405"/>
	<line class="st1" x1="-476.07" y1="-5405" x2="-476.07" y2="-405"/>
	<line class="st1" x1="-595.11" y1="-5405" x2="-595.11" y2="-405"/>
	<line class="st1" x1="-714.16" y1="-5405" x2="-714.16" y2="-405"/>
	<line class="st1" x1="-833.21" y1="-5405" x2="-833.21" y2="-405"/>
	<line class="st1" x1="-952.26" y1="-5405" x2="-952.26" y2="-405"/>
	<line class="st1" x1="-1071.3" y1="-5405" x2="-1071.3" y2="-405"/>
	<line class="st1" x1="-1190.35" y1="-5405" x2="-1190.35" y2="-405"/>
	<line class="st1" x1="-1309.4" y1="-5405" x2="-1309.4" y2="-405"/>
	<line class="st1" x1="-1428.45" y1="-5405" x2="-1428.45" y2="-405"/>
	<line class="st1" x1="-1547.49" y1="-5405" x2="-1547.49" y2="-405"/>
	<line class="st1" x1="-1666.54" y1="-5405" x2="-1666.54" y2="-405"/>
	<line class="st1" x1="-1785.59" y1="-5405" x2="-1785.59" y2="-405"/>
	<line class="st1" x1="-1904.64" y1="-5405" x2="-1904.64" y2="-405"/>
	<line class="st1" x1="-2023.68" y1="-5405" x2="-2023.68" y2="-405"/>
	<line class="st1" x1="-2142.73" y1="-5405" x2="-2142.73" y2="-405"/>
	<line class="st1" x1="-2261.78" y1="-5405" x2="-2261.78" y2="-405"/>
	<line class="st1" x1="-2380.83" y1="-5405" x2="-2380.83" y2="-405"/>
</g>
<rect x="-2499.88" y="-5405" class="st2" width="5000" height="5000"/>
<polygon class="st3" points="0.12,-1476.67 -714.16,-881.43 476.32,-881.43 714.41,-881.43 "/>
<polygon class="st3" points="-2023.68,-1833.57 -118.92,-1833.48 -1071.3,-1119.29 "/>
<polygon class="st3" points="119.17,-1833.57 2023.93,-1833.48 1071.55,-1119.29 "/>
<polygon class="st4" points="-833.21,-2309.76 -1309.4,-2309.76 0.12,-4928.81 1309.65,-2309.76 833.46,-2309.76 0.12,-3976.43 "/>
<text transform="matrix(1 0 0 1 4721.3872 -3619.2856)" style="font-family:'Montserrat-Bold'; font-size:1296px;">Ainoggo</text>
<text transform="matrix(1 0 0 1 4927.7363 -1952.619)" style="font-family:'LiAlinurSnigdhaANSIV1'; font-size:1296px;">AvBbÁ</text>
<g class="st5">
	<rect x="-2481.3" class="st6" width="2000" height="2000"/>
	<line class="st6" x1="-2481.3" y1="1904.76" x2="-481.3" y2="1904.76"/>
	<line class="st6" x1="-2481.3" y1="1809.52" x2="-481.3" y2="1809.52"/>
	<line class="st6" x1="-2481.3" y1="1714.29" x2="-481.3" y2="1714.29"/>
	<line class="st6" x1="-2481.3" y1="1619.05" x2="-481.3" y2="1619.05"/>
	<line class="st6" x1="-2481.3" y1="1523.81" x2="-481.3" y2="1523.81"/>
	<line class="st6" x1="-2481.3" y1="1428.57" x2="-481.3" y2="1428.57"/>
	<line class="st6" x1="-2481.3" y1="1333.33" x2="-481.3" y2="1333.33"/>
	<line class="st6" x1="-2481.3" y1="1238.1" x2="-481.3" y2="1238.1"/>
	<line class="st6" x1="-2481.3" y1="1142.86" x2="-481.3" y2="1142.86"/>
	<line class="st6" x1="-2481.3" y1="1047.62" x2="-481.3" y2="1047.62"/>
	<line class="st6" x1="-2481.3" y1="952.38" x2="-481.3" y2="952.38"/>
	<line class="st6" x1="-2481.3" y1="857.14" x2="-481.3" y2="857.14"/>
	<line class="st6" x1="-2481.3" y1="761.9" x2="-481.3" y2="761.9"/>
	<line class="st6" x1="-2481.3" y1="666.67" x2="-481.3" y2="666.67"/>
	<line class="st6" x1="-2481.3" y1="571.43" x2="-481.3" y2="571.43"/>
	<line class="st6" x1="-2481.3" y1="476.19" x2="-481.3" y2="476.19"/>
	<line class="st6" x1="-2481.3" y1="380.95" x2="-481.3" y2="380.95"/>
	<line class="st6" x1="-2481.3" y1="285.71" x2="-481.3" y2="285.71"/>
	<line class="st6" x1="-2481.3" y1="190.48" x2="-481.3" y2="190.48"/>
	<line class="st6" x1="-2481.3" y1="95.24" x2="-481.3" y2="95.24"/>
	<line class="st6" x1="-576.54" y1="0" x2="-576.54" y2="2000"/>
	<line class="st6" x1="-671.78" y1="0" x2="-671.78" y2="2000"/>
	<line class="st6" x1="-767.02" y1="0" x2="-767.02" y2="2000"/>
	<line class="st6" x1="-862.26" y1="0" x2="-862.26" y2="2000"/>
	<line class="st6" x1="-957.49" y1="0" x2="-957.49" y2="2000"/>
	<line class="st6" x1="-1052.73" y1="0" x2="-1052.73" y2="2000"/>
	<line class="st6" x1="-1147.97" y1="0" x2="-1147.97" y2="2000"/>
	<line class="st6" x1="-1243.21" y1="0" x2="-1243.21" y2="2000"/>
	<line class="st6" x1="-1338.45" y1="0" x2="-1338.45" y2="2000"/>
	<line class="st6" x1="-1433.68" y1="0" x2="-1433.68" y2="2000"/>
	<line class="st6" x1="-1528.92" y1="0" x2="-1528.92" y2="2000"/>
	<line class="st6" x1="-1624.16" y1="0" x2="-1624.16" y2="2000"/>
	<line class="st6" x1="-1719.4" y1="0" x2="-1719.4" y2="2000"/>
	<line class="st6" x1="-1814.64" y1="0" x2="-1814.64" y2="2000"/>
	<line class="st6" x1="-1909.88" y1="0" x2="-1909.88" y2="2000"/>
	<line class="st6" x1="-2005.11" y1="0" x2="-2005.11" y2="2000"/>
	<line class="st6" x1="-2100.35" y1="0" x2="-2100.35" y2="2000"/>
	<line class="st6" x1="-2195.59" y1="0" x2="-2195.59" y2="2000"/>
	<line class="st6" x1="-2290.83" y1="0" x2="-2290.83" y2="2000"/>
	<line class="st6" x1="-2386.07" y1="0" x2="-2386.07" y2="2000"/>
</g>
<g class="st5">
	<rect x="-2481.3" class="st7" width="2000" height="2000"/>
	<line class="st7" x1="-2481.3" y1="1952.38" x2="-481.3" y2="1952.38"/>
	<line class="st7" x1="-2481.3" y1="1904.76" x2="-481.3" y2="1904.76"/>
	<line class="st7" x1="-2481.3" y1="1857.14" x2="-481.3" y2="1857.14"/>
	<line class="st7" x1="-2481.3" y1="1809.52" x2="-481.3" y2="1809.52"/>
	<line class="st7" x1="-2481.3" y1="1761.9" x2="-481.3" y2="1761.9"/>
	<line class="st7" x1="-2481.3" y1="1714.29" x2="-481.3" y2="1714.29"/>
	<line class="st7" x1="-2481.3" y1="1666.67" x2="-481.3" y2="1666.67"/>
	<line class="st7" x1="-2481.3" y1="1619.05" x2="-481.3" y2="1619.05"/>
	<line class="st7" x1="-2481.3" y1="1571.43" x2="-481.3" y2="1571.43"/>
	<line class="st7" x1="-2481.3" y1="1523.81" x2="-481.3" y2="1523.81"/>
	<line class="st7" x1="-2481.3" y1="1476.19" x2="-481.3" y2="1476.19"/>
	<line class="st7" x1="-2481.3" y1="1428.57" x2="-481.3" y2="1428.57"/>
	<line class="st7" x1="-2481.3" y1="1380.95" x2="-481.3" y2="1380.95"/>
	<line class="st7" x1="-2481.3" y1="1333.33" x2="-481.3" y2="1333.33"/>
	<line class="st7" x1="-2481.3" y1="1285.71" x2="-481.3" y2="1285.71"/>
	<line class="st7" x1="-2481.3" y1="1238.1" x2="-481.3" y2="1238.1"/>
	<line class="st7" x1="-2481.3" y1="1190.48" x2="-481.3" y2="1190.48"/>
	<line class="st7" x1="-2481.3" y1="1142.86" x2="-481.3" y2="1142.86"/>
	<line class="st7" x1="-2481.3" y1="1095.24" x2="-481.3" y2="1095.24"/>
	<line class="st7" x1="-2481.3" y1="1047.62" x2="-481.3" y2="1047.62"/>
	<line class="st7" x1="-2481.3" y1="1000" x2="-481.3" y2="1000"/>
	<line class="st7" x1="-2481.3" y1="952.38" x2="-481.3" y2="952.38"/>
	<line class="st7" x1="-2481.3" y1="904.76" x2="-481.3" y2="904.76"/>
	<line class="st7" x1="-2481.3" y1="857.14" x2="-481.3" y2="857.14"/>
	<line class="st7" x1="-2481.3" y1="809.52" x2="-481.3" y2="809.52"/>
	<line class="st7" x1="-2481.3" y1="761.9" x2="-481.3" y2="761.9"/>
	<line class="st7" x1="-2481.3" y1="714.29" x2="-481.3" y2="714.29"/>
	<line class="st7" x1="-2481.3" y1="666.67" x2="-481.3" y2="666.67"/>
	<line class="st7" x1="-2481.3" y1="619.05" x2="-481.3" y2="619.05"/>
	<line class="st7" x1="-2481.3" y1="571.43" x2="-481.3" y2="571.43"/>
	<line class="st7" x1="-2481.3" y1="523.81" x2="-481.3" y2="523.81"/>
	<line class="st7" x1="-2481.3" y1="476.19" x2="-481.3" y2="476.19"/>
	<line class="st7" x1="-2481.3" y1="428.57" x2="-481.3" y2="428.57"/>
	<line class="st7" x1="-2481.3" y1="380.95" x2="-481.3" y2="380.95"/>
	<line class="st7" x1="-2481.3" y1="333.33" x2="-481.3" y2="333.33"/>
	<line class="st7" x1="-2481.3" y1="285.71" x2="-481.3" y2="285.71"/>
	<line class="st7" x1="-2481.3" y1="238.1" x2="-481.3" y2="238.1"/>
	<line class="st7" x1="-2481.3" y1="190.48" x2="-481.3" y2="190.48"/>
	<line class="st7" x1="-2481.3" y1="142.86" x2="-481.3" y2="142.86"/>
	<line class="st7" x1="-2481.3" y1="95.24" x2="-481.3" y2="95.24"/>
	<line class="st7" x1="-2481.3" y1="47.62" x2="-481.3" y2="47.62"/>
	<line class="st7" x1="-528.92" y1="0" x2="-528.92" y2="2000"/>
	<line class="st7" x1="-576.54" y1="0" x2="-576.54" y2="2000"/>
	<line class="st7" x1="-624.16" y1="0" x2="-624.16" y2="2000"/>
	<line class="st7" x1="-671.78" y1="0" x2="-671.78" y2="2000"/>
	<line class="st7" x1="-719.4" y1="0" x2="-719.4" y2="2000"/>
	<line class="st7" x1="-767.02" y1="0" x2="-767.02" y2="2000"/>
	<line class="st7" x1="-814.64" y1="0" x2="-814.64" y2="2000"/>
	<line class="st7" x1="-862.26" y1="0" x2="-862.26" y2="2000"/>
	<line class="st7" x1="-909.88" y1="0" x2="-909.88" y2="2000"/>
	<line class="st7" x1="-957.49" y1="0" x2="-957.49" y2="2000"/>
	<line class="st7" x1="-1005.11" y1="0" x2="-1005.11" y2="2000"/>
	<line class="st7" x1="-1052.73" y1="0" x2="-1052.73" y2="2000"/>
	<line class="st7" x1="-1100.35" y1="0" x2="-1100.35" y2="2000"/>
	<line class="st7" x1="-1147.97" y1="0" x2="-1147.97" y2="2000"/>
	<line class="st7" x1="-1195.59" y1="0" x2="-1195.59" y2="2000"/>
	<line class="st7" x1="-1243.21" y1="0" x2="-1243.21" y2="2000"/>
	<line class="st7" x1="-1290.83" y1="0" x2="-1290.83" y2="2000"/>
	<line class="st7" x1="-1338.45" y1="0" x2="-1338.45" y2="2000"/>
	<line class="st7" x1="-1386.07" y1="0" x2="-1386.07" y2="2000"/>
	<line class="st7" x1="-1433.68" y1="0" x2="-1433.68" y2="2000"/>
	<line class="st7" x1="-1481.3" y1="0" x2="-1481.3" y2="2000"/>
	<line class="st7" x1="-1528.92" y1="0" x2="-1528.92" y2="2000"/>
	<line class="st7" x1="-1576.54" y1="0" x2="-1576.54" y2="2000"/>
	<line class="st7" x1="-1624.16" y1="0" x2="-1624.16" y2="2000"/>
	<line class="st7" x1="-1671.78" y1="0" x2="-1671.78" y2="2000"/>
	<line class="st7" x1="-1719.4" y1="0" x2="-1719.4" y2="2000"/>
	<line class="st7" x1="-1767.02" y1="0" x2="-1767.02" y2="2000"/>
	<line class="st7" x1="-1814.64" y1="0" x2="-1814.64" y2="2000"/>
	<line class="st7" x1="-1862.26" y1="0" x2="-1862.26" y2="2000"/>
	<line class="st7" x1="-1909.88" y1="0" x2="-1909.88" y2="2000"/>
	<line class="st7" x1="-1957.49" y1="0" x2="-1957.49" y2="2000"/>
	<line class="st7" x1="-2005.11" y1="0" x2="-2005.11" y2="2000"/>
	<line class="st7" x1="-2052.73" y1="0" x2="-2052.73" y2="2000"/>
	<line class="st7" x1="-2100.35" y1="0" x2="-2100.35" y2="2000"/>
	<line class="st7" x1="-2147.97" y1="0" x2="-2147.97" y2="2000"/>
	<line class="st7" x1="-2195.59" y1="0" x2="-2195.59" y2="2000"/>
	<line class="st7" x1="-2243.21" y1="0" x2="-2243.21" y2="2000"/>
	<line class="st7" x1="-2290.83" y1="0" x2="-2290.83" y2="2000"/>
	<line class="st7" x1="-2338.45" y1="0" x2="-2338.45" y2="2000"/>
	<line class="st7" x1="-2386.07" y1="0" x2="-2386.07" y2="2000"/>
	<line class="st7" x1="-2433.68" y1="0" x2="-2433.68" y2="2000"/>
</g>
<rect x="-2481.3" y="0" class="st8" width="2000" height="2000"/>
<text transform="matrix(1 0 0 1 -2123.1145 1846.1512)" style="display:none;fill:#314155; font-family:'Montserrat-Bold'; font-size:287.6153px;">Ainoggo</text>
<g>
	<polygon class="st2" points="-1481.3,1313.71 -1733.42,1523.81 -1313.23,1523.81 -1229.19,1523.81 	"/>
	<polygon class="st2" points="-2195.63,1187.74 -1523.32,1187.77 -1859.48,1439.86 	"/>
	<polygon class="st2" points="-1439.28,1187.74 -766.98,1187.77 -1103.13,1439.86 	"/>
	<polygon class="st2" points="-1775.44,1019.66 -1943.52,1019.66 -1481.3,95.24 -1019.09,1019.66 -1187.17,1019.66 -1481.3,431.39 	
		"/>
	
		<text transform="matrix(1 0 0 1 -1964.6836 1849.6464)" class="st2" style="font-family:'LiAlinurSnigdhaANSIV1'; font-size:257.9409px;">AvBbÁ</text>
</g>
<g class="st5">
	<rect x="0.12" class="st6" width="2000" height="2000"/>
	<line class="st6" x1="0.12" y1="1904.76" x2="2000.12" y2="1904.76"/>
	<line class="st6" x1="0.12" y1="1809.52" x2="2000.12" y2="1809.52"/>
	<line class="st6" x1="0.12" y1="1714.29" x2="2000.12" y2="1714.29"/>
	<line class="st6" x1="0.12" y1="1619.05" x2="2000.12" y2="1619.05"/>
	<line class="st6" x1="0.12" y1="1523.81" x2="2000.12" y2="1523.81"/>
	<line class="st6" x1="0.12" y1="1428.57" x2="2000.12" y2="1428.57"/>
	<line class="st6" x1="0.12" y1="1333.33" x2="2000.12" y2="1333.33"/>
	<line class="st6" x1="0.12" y1="1238.1" x2="2000.12" y2="1238.1"/>
	<line class="st6" x1="0.12" y1="1142.86" x2="2000.12" y2="1142.86"/>
	<line class="st6" x1="0.12" y1="1047.62" x2="2000.12" y2="1047.62"/>
	<line class="st6" x1="0.12" y1="952.38" x2="2000.12" y2="952.38"/>
	<line class="st6" x1="0.12" y1="857.14" x2="2000.12" y2="857.14"/>
	<line class="st6" x1="0.12" y1="761.9" x2="2000.12" y2="761.9"/>
	<line class="st6" x1="0.12" y1="666.67" x2="2000.12" y2="666.67"/>
	<line class="st6" x1="0.12" y1="571.43" x2="2000.12" y2="571.43"/>
	<line class="st6" x1="0.12" y1="476.19" x2="2000.12" y2="476.19"/>
	<line class="st6" x1="0.12" y1="380.95" x2="2000.12" y2="380.95"/>
	<line class="st6" x1="0.12" y1="285.71" x2="2000.12" y2="285.71"/>
	<line class="st6" x1="0.12" y1="190.48" x2="2000.12" y2="190.48"/>
	<line class="st6" x1="0.12" y1="95.24" x2="2000.12" y2="95.24"/>
	<line class="st6" x1="1904.89" y1="0" x2="1904.89" y2="2000"/>
	<line class="st6" x1="1809.65" y1="0" x2="1809.65" y2="2000"/>
	<line class="st6" x1="1714.41" y1="0" x2="1714.41" y2="2000"/>
	<line class="st6" x1="1619.17" y1="0" x2="1619.17" y2="2000"/>
	<line class="st6" x1="1523.93" y1="0" x2="1523.93" y2="2000"/>
	<line class="st6" x1="1428.7" y1="0" x2="1428.7" y2="2000"/>
	<line class="st6" x1="1333.46" y1="0" x2="1333.46" y2="2000"/>
	<line class="st6" x1="1238.22" y1="0" x2="1238.22" y2="2000"/>
	<line class="st6" x1="1142.98" y1="0" x2="1142.98" y2="2000"/>
	<line class="st6" x1="1047.74" y1="0" x2="1047.74" y2="2000"/>
	<line class="st6" x1="952.51" y1="0" x2="952.51" y2="2000"/>
	<line class="st6" x1="857.27" y1="0" x2="857.27" y2="2000"/>
	<line class="st6" x1="762.03" y1="0" x2="762.03" y2="2000"/>
	<line class="st6" x1="666.79" y1="0" x2="666.79" y2="2000"/>
	<line class="st6" x1="571.55" y1="0" x2="571.55" y2="2000"/>
	<line class="st6" x1="476.32" y1="0" x2="476.32" y2="2000"/>
	<line class="st6" x1="381.08" y1="0" x2="381.08" y2="2000"/>
	<line class="st6" x1="285.84" y1="0" x2="285.84" y2="2000"/>
	<line class="st6" x1="190.6" y1="0" x2="190.6" y2="2000"/>
	<line class="st6" x1="95.36" y1="0" x2="95.36" y2="2000"/>
</g>
<g class="st5">
	<rect x="0.12" class="st7" width="2000" height="2000"/>
	<line class="st7" x1="0.12" y1="1952.38" x2="2000.12" y2="1952.38"/>
	<line class="st7" x1="0.12" y1="1904.76" x2="2000.12" y2="1904.76"/>
	<line class="st7" x1="0.12" y1="1857.14" x2="2000.12" y2="1857.14"/>
	<line class="st7" x1="0.12" y1="1809.52" x2="2000.12" y2="1809.52"/>
	<line class="st7" x1="0.12" y1="1761.9" x2="2000.12" y2="1761.9"/>
	<line class="st7" x1="0.12" y1="1714.29" x2="2000.12" y2="1714.29"/>
	<line class="st7" x1="0.12" y1="1666.67" x2="2000.12" y2="1666.67"/>
	<line class="st7" x1="0.12" y1="1619.05" x2="2000.12" y2="1619.05"/>
	<line class="st7" x1="0.12" y1="1571.43" x2="2000.12" y2="1571.43"/>
	<line class="st7" x1="0.12" y1="1523.81" x2="2000.12" y2="1523.81"/>
	<line class="st7" x1="0.12" y1="1476.19" x2="2000.12" y2="1476.19"/>
	<line class="st7" x1="0.12" y1="1428.57" x2="2000.12" y2="1428.57"/>
	<line class="st7" x1="0.12" y1="1380.95" x2="2000.12" y2="1380.95"/>
	<line class="st7" x1="0.12" y1="1333.33" x2="2000.12" y2="1333.33"/>
	<line class="st7" x1="0.12" y1="1285.71" x2="2000.12" y2="1285.71"/>
	<line class="st7" x1="0.12" y1="1238.1" x2="2000.12" y2="1238.1"/>
	<line class="st7" x1="0.12" y1="1190.48" x2="2000.12" y2="1190.48"/>
	<line class="st7" x1="0.12" y1="1142.86" x2="2000.12" y2="1142.86"/>
	<line class="st7" x1="0.12" y1="1095.24" x2="2000.12" y2="1095.24"/>
	<line class="st7" x1="0.12" y1="1047.62" x2="2000.12" y2="1047.62"/>
	<line class="st7" x1="0.12" y1="1000" x2="2000.12" y2="1000"/>
	<line class="st7" x1="0.12" y1="952.38" x2="2000.12" y2="952.38"/>
	<line class="st7" x1="0.12" y1="904.76" x2="2000.12" y2="904.76"/>
	<line class="st7" x1="0.12" y1="857.14" x2="2000.12" y2="857.14"/>
	<line class="st7" x1="0.12" y1="809.52" x2="2000.12" y2="809.52"/>
	<line class="st7" x1="0.12" y1="761.9" x2="2000.12" y2="761.9"/>
	<line class="st7" x1="0.12" y1="714.29" x2="2000.12" y2="714.29"/>
	<line class="st7" x1="0.12" y1="666.67" x2="2000.12" y2="666.67"/>
	<line class="st7" x1="0.12" y1="619.05" x2="2000.12" y2="619.05"/>
	<line class="st7" x1="0.12" y1="571.43" x2="2000.12" y2="571.43"/>
	<line class="st7" x1="0.12" y1="523.81" x2="2000.12" y2="523.81"/>
	<line class="st7" x1="0.12" y1="476.19" x2="2000.12" y2="476.19"/>
	<line class="st7" x1="0.12" y1="428.57" x2="2000.12" y2="428.57"/>
	<line class="st7" x1="0.12" y1="380.95" x2="2000.12" y2="380.95"/>
	<line class="st7" x1="0.12" y1="333.33" x2="2000.12" y2="333.33"/>
	<line class="st7" x1="0.12" y1="285.71" x2="2000.12" y2="285.71"/>
	<line class="st7" x1="0.12" y1="238.1" x2="2000.12" y2="238.1"/>
	<line class="st7" x1="0.12" y1="190.48" x2="2000.12" y2="190.48"/>
	<line class="st7" x1="0.12" y1="142.86" x2="2000.12" y2="142.86"/>
	<line class="st7" x1="0.12" y1="95.24" x2="2000.12" y2="95.24"/>
	<line class="st7" x1="0.12" y1="47.62" x2="2000.12" y2="47.62"/>
	<line class="st7" x1="1952.51" y1="0" x2="1952.51" y2="2000"/>
	<line class="st7" x1="1904.89" y1="0" x2="1904.89" y2="2000"/>
	<line class="st7" x1="1857.27" y1="0" x2="1857.27" y2="2000"/>
	<line class="st7" x1="1809.65" y1="0" x2="1809.65" y2="2000"/>
	<line class="st7" x1="1762.03" y1="0" x2="1762.03" y2="2000"/>
	<line class="st7" x1="1714.41" y1="0" x2="1714.41" y2="2000"/>
	<line class="st7" x1="1666.79" y1="0" x2="1666.79" y2="2000"/>
	<line class="st7" x1="1619.17" y1="0" x2="1619.17" y2="2000"/>
	<line class="st7" x1="1571.55" y1="0" x2="1571.55" y2="2000"/>
	<line class="st7" x1="1523.93" y1="0" x2="1523.93" y2="2000"/>
	<line class="st7" x1="1476.32" y1="0" x2="1476.32" y2="2000"/>
	<line class="st7" x1="1428.7" y1="0" x2="1428.7" y2="2000"/>
	<line class="st7" x1="1381.08" y1="0" x2="1381.08" y2="2000"/>
	<line class="st7" x1="1333.46" y1="0" x2="1333.46" y2="2000"/>
	<line class="st7" x1="1285.84" y1="0" x2="1285.84" y2="2000"/>
	<line class="st7" x1="1238.22" y1="0" x2="1238.22" y2="2000"/>
	<line class="st7" x1="1190.6" y1="0" x2="1190.6" y2="2000"/>
	<line class="st7" x1="1142.98" y1="0" x2="1142.98" y2="2000"/>
	<line class="st7" x1="1095.36" y1="0" x2="1095.36" y2="2000"/>
	<line class="st7" x1="1047.74" y1="0" x2="1047.74" y2="2000"/>
	<line class="st7" x1="1000.12" y1="0" x2="1000.12" y2="2000"/>
	<line class="st7" x1="952.51" y1="0" x2="952.51" y2="2000"/>
	<line class="st7" x1="904.89" y1="0" x2="904.89" y2="2000"/>
	<line class="st7" x1="857.27" y1="0" x2="857.27" y2="2000"/>
	<line class="st7" x1="809.65" y1="0" x2="809.65" y2="2000"/>
	<line class="st7" x1="762.03" y1="0" x2="762.03" y2="2000"/>
	<line class="st7" x1="714.41" y1="0" x2="714.41" y2="2000"/>
	<line class="st7" x1="666.79" y1="0" x2="666.79" y2="2000"/>
	<line class="st7" x1="619.17" y1="0" x2="619.17" y2="2000"/>
	<line class="st7" x1="571.55" y1="0" x2="571.55" y2="2000"/>
	<line class="st7" x1="523.93" y1="0" x2="523.93" y2="2000"/>
	<line class="st7" x1="476.32" y1="0" x2="476.32" y2="2000"/>
	<line class="st7" x1="428.7" y1="0" x2="428.7" y2="2000"/>
	<line class="st7" x1="381.08" y1="0" x2="381.08" y2="2000"/>
	<line class="st7" x1="333.46" y1="0" x2="333.46" y2="2000"/>
	<line class="st7" x1="285.84" y1="0" x2="285.84" y2="2000"/>
	<line class="st7" x1="238.22" y1="0" x2="238.22" y2="2000"/>
	<line class="st7" x1="190.6" y1="0" x2="190.6" y2="2000"/>
	<line class="st7" x1="142.98" y1="0" x2="142.98" y2="2000"/>
	<line class="st7" x1="95.36" y1="0" x2="95.36" y2="2000"/>
	<line class="st7" x1="47.74" y1="0" x2="47.74" y2="2000"/>
</g>
<rect x="0.12" class="st9" width="2000" height="2000"/>
<g>
	<polygon points="1000.12,1571.33 714.41,1809.43 1190.6,1809.43 1285.84,1809.43 	"/>
	<polygon points="190.6,1428.57 952.51,1428.61 571.55,1714.29 	"/>
	<polygon points="1047.74,1428.57 1809.65,1428.61 1428.7,1714.29 	"/>
	<polygon points="666.79,1238.1 476.32,1238.1 1000.12,190.48 1523.93,1238.1 1333.46,1238.1 1000.12,571.43 	"/>
</g>
</svg>
